<svg xmlns="http://www.w3.org/2000/svg" fill="none" viewBox="0 0 60 61"><path fill="#1877F2" d="M60 30.6c0-16.57-13.43-30-30-30S0 14.03 0 30.6c0 14.976 10.969 27.386 25.313 29.636V39.272h-7.618V30.6h7.617v-6.61c0-7.517 4.477-11.672 11.333-11.672 3.28 0 6.714.586 6.714.586v7.383h-3.785c-3.726 0-4.886 2.315-4.886 4.688V30.6h8.32l-1.33 8.672h-6.99v20.964C49.03 57.986 60 45.576 60 30.6z"/><path fill="#fff" d="M41.678 39.272l1.33-8.672h-8.32v-5.625c0-2.373 1.16-4.688 4.886-4.688h3.785v-7.383s-3.433-.586-6.714-.586c-6.856 0-11.332 4.155-11.332 11.672v6.61h-7.618v8.672h7.618v20.964c1.529.24 3.093.364 4.687.364 1.594 0 3.158-.123 4.688-.364V39.272h6.99z"/></svg>