<svg width="214" height="172" fill="none" xmlns="http://www.w3.org/2000/svg"><path d="M31.668 147.878c.33-1.581.841-2.991 1.536-4.229a65.722 65.722 0 001.98-4.308 2169.706 2169.706 0 019.425-24.194c3.159-7.966 6.358-15.99 9.599-24.072a892.71 892.71 0 019.417-22.518 397.365 397.365 0 0110.409-22.082c.208-.544.425-1.04.65-1.485.227-.446.444-.94.652-1.485-.626-.093-.988-.131-1.087-.114-7.109 1.147-14.168 2.285-21.179 3.414a1579.755 1579.755 0 01-21.057 3.24c-4.45.68-8.708 1.58-12.775 2.7a139.68 139.68 0 01-12.802 2.551c-1.558.375-2.676.369-3.354-.02-.777-.371-1.12-.87-1.027-1.495-.006-.608.341-1.227 1.042-1.858.7-.63 1.691-1.059 2.972-1.283l14.826-2.299c4.942-.766 9.835-1.523 14.679-2.272a770.51 770.51 0 0025.933-4.096c2.381-.316 4.713-.624 6.996-.923l7.091-1.245c1.397-.144 2.451-.786 3.163-1.926.382-1.286.955-2.35 1.72-3.196.683-.729 1.404-.957 2.163-.684.33.145.53.414.6.808.07.394.032.756-.112 1.086a9.717 9.717 0 01-.79 2.423c.528.11 1.136.105 1.826-.016l19.797-3.475a1346.313 1346.313 0 0119.771-3.624 281.178 281.178 0 0015.382-3.461 169.174 169.174 0 0115.529-3.488c1.872-.329 3.344-.333 4.416-.014 1.17.302 1.817.798 1.939 1.487.104.591-.283 1.268-1.164 2.032-.782.746-2.149 1.342-4.101 1.786-3.725.756-7.625 1.39-11.698 1.901-4.073.512-8.03 1.106-11.871 1.78L82.08 42.017c-.788.138-1.394.447-1.816.927-.342.365-.666.828-.973 1.39a539.723 539.723 0 01-7.335 16.212 340.042 340.042 0 00-7.04 16.16 1089.157 1089.157 0 00-10.98 26.6c-3.53 8.742-7.1 17.542-10.71 26.4-1.267 3.166-2.433 6.62-3.497 10.36-.983 3.625-2.059 7.012-3.227 10.161a4.122 4.122 0 01-1.66 1.815c-.735.433-1.416.604-2.041.51-.626-.093-1.108-.516-1.444-1.269-.337-.753-.233-1.888.311-3.405zm91.83-66.074c-.892 1.273-2.366 2.7-4.422 4.28-1.958 1.561-4.025 2.787-6.204 3.677-2.079.873-4.009 1.16-5.788.864-1.779-.297-2.895-1.725-3.348-4.285a19.25 19.25 0 01-.271-2.39 33.344 33.344 0 01-.054-2.884 509.207 509.207 0 00-6.698 6.05 133.926 133.926 0 01-6.628 5.58 3.975 3.975 0 01-1.911 1.249l-2.017.659c-2.114.675-3.754.303-4.92-1.117-1.165-1.42-1.305-3.07-.42-4.951.388-.678.736-1.297 1.042-1.859.307-.561.713-1.14 1.216-1.736 2.16-2.714 4.67-4.881 7.532-6.5 2.862-1.62 6.091-2.593 9.689-2.92 1.316-.028 2.28-.603 2.894-1.726a37.48 37.48 0 001.554-2.405l1.702-2.431c.145-.33.339-.669.582-1.016.243-.347.504-.596.782-.746a3.32 3.32 0 011.008-.33c.492-.086.904-.057 1.234.088.615.603.942 1.307.983 2.112.041.805-.178 1.859-.658 3.162-.191.642-.564 1.977-1.119 4.004a30.03 30.03 0 00-1.127 5.68c-.08 1.841.182 3.318.785 4.43.586 1.015 1.95.978 4.093-.109 1.13-.502 2.323-1.22 3.58-2.151a86.62 86.62 0 013.744-2.942l1.078-.798c.341-.365.767-.54 1.277-.529.527.11.933.395 1.217.853.366.341.23.72-.407 1.137zm-38.542 8.594c2.769-.994 5.581-2.604 8.436-4.832 2.838-2.325 5.068-4.646 6.689-6.961-2.92.716-5.866 2.147-8.837 4.293-2.971 2.146-5.067 4.646-6.288 7.5zm38.141-16.595c-1.374-.876-2.038-1.47-1.991-1.783.028-.41.515-1.105 1.459-2.083 2.165-2.106 3.801-4.627 4.906-7.563l5.017-11.236 5.018-11.237a49.422 49.422 0 013.464-6.243 36.421 36.421 0 014.455-5.808c.423-.48.904-.92 1.442-1.32a40.09 40.09 0 011.738-1.37 4.405 4.405 0 011.573-.581c.591-.104 1.176.047 1.756.453.579.406.962.846 1.148 1.321.284.458.281 1.017-.008 1.677a95.162 95.162 0 00-.928 3.361 14.898 14.898 0 01-1.102 3.24 147.284 147.284 0 01-8.579 15.212c-3.01 4.793-6.391 9.498-10.143 14.116a37.104 37.104 0 00-1.555 2.406 10.775 10.775 0 00-.963 2.3 1583.88 1583.88 0 00-2.76 7.643 585.22 585.22 0 00-3.332 9.57 890.861 890.861 0 00-3.332 9.57c-1.088 3.035-1.958 5.573-2.612 7.617-.063.214.188-.084.756-.894l2.31-3.3a624.43 624.43 0 012.987-4.636 138.946 138.946 0 003.083-4.957 98.139 98.139 0 002.718-4.437 188.292 188.292 0 001.623-2.874c-.4-.54-.635-1.005-.704-1.4-.632-.7-.804-1.381-.514-2.041.289-.66.877-1.068 1.763-1.224 1.773-.31 3.239-.924 4.397-1.838l3.423-3.037 4.743-4.183 4.743-4.183c.863-.863 1.935-1.406 3.215-1.631.69-.121 1.539.085 2.547.619.829.667.879 1.52.149 2.563-.631 1.024-1.346 1.86-2.145 2.509a120.156 120.156 0 01-5.186 4.26 353.575 353.575 0 00-4.917 4.062 5.31 5.31 0 01-1.469 1.171c-.457.284-.996.683-1.616 1.198 1.339.679 2.666 1.004 3.982.976a51.79 51.79 0 003.919-.231c2.005-.149 3.85-.625 5.536-1.429a32.779 32.779 0 005.248-3.053l1.911-1.25c.62-.514 1.248-.98 1.886-1.397.556-.3 1.08-.494 1.572-.58.475-.185 1-.379 1.573-.581.054 2.021-.67 3.671-2.17 4.95-3.504 3.153-7.329 5.348-11.478 6.584-4.148 1.236-8.612 1.258-13.393.067-.858-.256-1.524-.291-1.999-.106-.377.167-.866.558-1.468 1.171a307.725 307.725 0 00-9.415 13.075 130.637 130.637 0 00-8.101 13.606c-.145.33-.281.709-.408 1.137-.243.348-.593.663-1.051.946-.18.133-.507.292-.982.477-.492.087-.904.057-1.234-.088-.215-.064-.406-.284-.574-.66a2.67 2.67 0 01-.505-1.13c-.232-.162-.275-.409-.131-.739l.139-.938a200.69 200.69 0 012.958-9.961 271.367 271.367 0 002.637-10.058 130.566 130.566 0 012.273-6.947c.798-2.374 1.556-4.69 2.273-6.948.145-.33.2-.593.165-.79a8.2 8.2 0 01.26-1.112zm11.202-16.74a148.172 148.172 0 006.444-9.202c2.055-3.305 3.818-6.255 5.288-8.848 1.453-2.692 2.411-4.738 2.874-6.14.544-1.516.309-1.982-.705-1.398-.799.648-1.879 2.005-3.24 4.071-1.36 2.067-2.726 4.388-4.098 6.964a132.625 132.625 0 00-3.915 7.997c-1.158 2.64-2.04 4.826-2.648 6.557zm50.917 15.581a142.036 142.036 0 01-6.046 4.564 32.813 32.813 0 01-6.499 3.73l-2.312.71a9.868 9.868 0 01-2.416.12c-1.414.046-2.512-.422-3.295-1.401-.881-.962-1.337-2.1-1.366-3.415a11.74 11.74 0 01-.15-2.563 5.008 5.008 0 01.468-2.519c.77-1.962 1.406-4.105 1.909-6.427.601-2.339 1.394-4.458 2.378-6.356.388-.678.926-1.077 1.616-1.198.672-.22 1.298-.126 1.877.28.661.29 1.119.87 1.374 1.738.238.77.051 1.717-.563 2.84a186.069 186.069 0 01-2.144 5.098 101.343 101.343 0 00-2.118 5.245c-.618 2.24-.791 3.845-.518 4.812.354.852.942 1.307 1.765 1.365.921.042 1.987-.247 3.198-.865a21.646 21.646 0 003.553-2.3 68.803 68.803 0 003.475-2.742c1.043-.995 1.758-1.831 2.146-2.508.793-1.257 1.583-1.954 2.371-2.092.771-.237 1.347-.135 1.73.305.464.325.716.89.757 1.695.024.707-.373 1.335-1.19 1.884zm-8.489-27.293c.788-.138 1.422.004 1.904.427.579.406.832.971.757 1.695-.058.822-.451 1.754-1.181 2.796a14.783 14.783 0 01-2.414 2.708c-1.24 1.03-2.173 1.499-2.798 1.405-.528-.11-.76-1.135-.697-3.075-.013-1.217.279-2.435.875-3.657.695-1.239 1.879-2.005 3.554-2.299z" fill="#77A"/></svg>