<svg xmlns="http://www.w3.org/2000/svg" fill="none" viewBox="0 0 138 60"><path fill="#FF8" d="M20.84 38.28a22.591 22.591 0 00-2.64-.16 48.447 48.447 0 01-2.64-.24 62.129 62.129 0 00-3.36-.24 23.57 23.57 0 00-3.36.08c-1.547.16-2.987.693-4.32 1.6-1.6 1.067-2.08 2.507-1.44 4.32.213.693.507 1.307.88 1.84.427.533.907 1.093 1.44 1.68a25.527 25.527 0 004.56 3.76 46.847 46.847 0 005.36 2.88c5.013 2.187 10.187 3.12 15.52 2.8a18.186 18.186 0 003.04-.4 16.682 16.682 0 003.04-.96c.16 0 .267-.027.32-.08 2.027-.96 3.28-2.107 3.76-3.44.533-1.333.667-2.88.4-4.64-.32-2.08-1.04-4.053-2.16-5.92a272.469 272.469 0 00-2.56-4.08A272.469 272.469 0 0134.12 33a85.833 85.833 0 01-2.88-4.72 20.359 20.359 0 01-2-5.28c-.8-3.413 0-6.347 2.4-8.8a17.054 17.054 0 012.4-2 18.743 18.743 0 012.64-1.52 41.126 41.126 0 017.6-2.56c2.56-.587 5.227-.8 8-.64.48 0 .987.027 1.52.08.533.053 1.04.187 1.52.4 2.507.8 3.84 2.507 4 5.12.16 1.973-.293 3.813-1.36 5.52a38.003 38.003 0 01-1.44 2.16 19.672 19.672 0 01-1.68 1.92 67.927 67.927 0 01-3.36 3.44 197.88 197.88 0 01-3.52 3.28 8.25 8.25 0 01-1.04.88c-.32.267-.747.4-1.28.4-.107-.267-.107-.48 0-.64l.4-.4 3.36-3.36a99.948 99.948 0 003.28-3.44 27.91 27.91 0 002-2.56l1.76-2.72c.8-1.28 1.12-2.667.96-4.16-.053-.96-.32-1.76-.8-2.4-.48-.693-1.227-1.12-2.24-1.28a14.23 14.23 0 00-3.6-.48c-5.333.16-10.24 1.493-14.72 4-.853.48-1.68 1.067-2.48 1.76-2.347 2.027-3.147 4.56-2.4 7.6.267 1.12.613 2.187 1.04 3.2a25 25 0 001.52 2.88 272.469 272.469 0 002.56 4.08 497.429 497.429 0 002.64 4.08 37.17 37.17 0 012.32 4 24.998 24.998 0 011.68 4.32c.213.587.347 1.12.4 1.6.107.48.187.987.24 1.52.16 1.92-.16 3.573-.96 4.96-.8 1.387-2.027 2.533-3.68 3.44a13.503 13.503 0 01-4.16 1.52c-1.44.267-2.907.427-4.4.48-8.48.32-16.187-2.053-23.12-7.12a38.826 38.826 0 01-2.72-2.32 15.072 15.072 0 01-2.32-2.8C.813 44.413.413 42.493 1 40.68c.533-1.813 1.947-3.173 4.24-4.08a11.117 11.117 0 014.08-.96 28.119 28.119 0 014.24 0c2.347.16 4.56.8 6.64 1.92.16.107.293.187.4.24.107.053.213.133.32.24v.08c0 .053-.027.107-.08.16zm49.591-7.84c-.426.213-.773.373-1.04.48-.213.107-.453.24-.72.4a18.28 18.28 0 00-3.28 2.48l-3.04 2.88c-1.066 1.013-2.106 2-3.12 2.96a156.86 156.86 0 00-3.04 2.96c-.213.16-.4.347-.56.56a1.76 1.76 0 01-.72.32 2.14 2.14 0 01-.8.16c-.32-.053-.533-.16-.64-.32-.16-.107-.266-.293-.32-.56-.106-.32-.106-.587 0-.8.054-.427.16-.8.32-1.12a5.9 5.9 0 01.48-1.04 357.8 357.8 0 016.08-10.88c2.134-3.573 4.4-7.093 6.8-10.56.8-1.173 1.734-2.56 2.8-4.16a264.626 264.626 0 013.28-4.96 222.13 222.13 0 013.44-4.72c1.12-1.547 2.16-2.827 3.12-3.84.32-.373.64-.533.96-.48.374 0 .667.107.88.32.214.213.347.507.4.88.054.32-.08.587-.4.8-1.6 1.973-3.28 4.187-5.04 6.64-1.76 2.4-3.52 4.88-5.28 7.44a303.71 303.71 0 00-4.96 7.52 871.065 871.065 0 00-4.4 6.96l-2.08 3.36c-.64 1.12-1.28 2.293-1.92 3.52.374 0 .64-.08.8-.24.16-.16.32-.347.48-.56.8-.747 1.574-1.467 2.32-2.16.8-.747 1.574-1.467 2.32-2.16a46.434 46.434 0 014.32-3.36c.16-.16.374-.267.64-.32l.8-.32c1.227-.427 2.134-.373 2.72.16.587.48.827 1.387.72 2.72-.053.427-.133.853-.24 1.28-.053.373-.133.773-.24 1.2a10.78 10.78 0 00-.24 1.28 27.63 27.63 0 01-.24 1.52 7.025 7.025 0 011.2-.48c.374-.107.72-.213 1.04-.32l2.24-1.28a99.08 99.08 0 012.32-1.2c.8-.32 1.414-.453 1.84-.4.427.053.667.213.72.48.107.267.027.587-.24.96-.266.373-.666.693-1.2.96a92.189 92.189 0 01-3.2 1.68 44.7 44.7 0 00-3.2 1.6c-.32.16-.773.24-1.36.24-1.546.107-2.32-.613-2.32-2.16 0-.587.054-1.173.16-1.76l.32-1.92c.054-.373.08-.747.08-1.12.054-.427.134-.933.24-1.52zm31.393 4.24c-.586.587-1.493 1.2-2.72 1.84a13.48 13.48 0 01-3.6 1.36c-1.173.267-2.213.24-3.12-.08-.906-.32-1.36-1.173-1.36-2.56 0-.427.027-.853.08-1.28.054-.48.134-.987.24-1.52a272.469 272.469 0 00-4.08 2.56 71.58 71.58 0 01-4 2.32c-.32.267-.693.427-1.12.48l-1.12.16c-1.173.16-2-.187-2.48-1.04s-.4-1.733.24-2.64c.267-.32.507-.613.72-.88.214-.267.48-.533.8-.8 1.387-1.227 2.907-2.133 4.56-2.72 1.654-.587 3.44-.8 5.36-.64.694.107 1.254-.107 1.68-.64.374-.373.72-.747 1.04-1.12l1.12-1.12c.107-.16.24-.32.4-.48.16-.16.32-.267.48-.32.16-.053.347-.08.56-.08.267 0 .48.053.64.16.267.373.374.773.32 1.2-.053.427-.266.96-.64 1.6-.16.32-.48.987-.96 2-.48.96-.853 1.92-1.12 2.88-.213.96-.213 1.76 0 2.4.214.587.934.693 2.16.32.64-.16 1.334-.427 2.08-.8a45.863 45.863 0 012.24-1.2l.64-.32a.867.867 0 01.72-.16.964.964 0 01.56.56c.16.213.054.4-.32.56zm-21.04.96c1.547-.267 3.174-.853 4.88-1.76 1.707-.96 3.094-1.973 4.16-3.04-1.6.107-3.28.587-5.04 1.44-1.76.853-3.093 1.973-4 3.36zm33.894.56c-.64-.053-1.147-.213-1.52-.48a3.615 3.615 0 01-.96-1.04c-.213-.427-.4-.88-.56-1.36l-.32-1.44c-.32-.747-.773-1.12-1.36-1.12-.587 0-1.2.187-1.84.56a7.378 7.378 0 00-1.68 1.28c-.533.533-.96.933-1.28 1.2-1.867 1.547-3.307 3.28-4.32 5.2-.16.427-.4.773-.72 1.04-.373.267-.72.453-1.04.56-.32.053-.587 0-.8-.16-.267-.16-.4-.48-.4-.96 0-.267.053-.48.16-.64.107-.16.213-.347.32-.56 1.013-1.813 2-3.627 2.96-5.44.96-1.813 1.947-3.627 2.96-5.44a5.51 5.51 0 011.04-1.44.999.999 0 01.4-.24c.213-.053.373-.027.48.08.373.213.507.507.4.88 0 .373-.107.827-.32 1.36-.373.693-.72 1.387-1.04 2.08-.32.693-.613 1.413-.88 2.16.427-.32.693-.533.8-.64a43.554 43.554 0 001.44-1.2c.48-.427.96-.8 1.44-1.12a4.18 4.18 0 012.16-.96c1.6-.373 2.64.213 3.12 1.76.107.427.187.827.24 1.2.053.373.133.747.24 1.12.107.587.293.987.56 1.2.267.16.72.213 1.36.16h.8c.32-.053.613-.08.88-.08.747-.053 1.253.053 1.52.32.267.267.293.587.08.96-.213.32-.693.613-1.44.88-.693.267-1.653.373-2.88.32zm19.508-2.56c.266-.107.506-.187.72-.24.213-.107.453-.213.72-.32.64-.107 1.093.08 1.36.56.266.64.106 1.093-.48 1.36a28.68 28.68 0 01-6.16 2.32 33.18 33.18 0 01-6.4.96c-.747.053-1.547.053-2.4 0a6.295 6.295 0 01-2.24-.56c-.64-.32-1.12-.773-1.44-1.36-.32-.64-.347-1.493-.08-2.56.373-1.067.72-1.813 1.04-2.24.32-.427.933-.88 1.84-1.36.96-.427 1.946-.72 2.96-.88 1.066-.213 2.08-.32 3.04-.32.906.107 1.44.56 1.6 1.36.16.853-.134 1.493-.88 1.92a16.88 16.88 0 01-1.68.88c-.587.213-1.2.427-1.84.64-.48.107-.987.187-1.52.24-.534.053-1.067.08-1.6.08-.8 0-1.254.187-1.36.56-.054.32.106.667.48 1.04.533.533 1.466.827 2.8.88a30.1 30.1 0 004.24-.32 25.598 25.598 0 004.32-1.12c1.386-.48 2.373-.987 2.96-1.52zm-8.08-2.32c.373-.48.373-.72 0-.72-.32-.053-.827.027-1.52.24-.64.213-1.387.533-2.24.96-.854.427-1.6.853-2.24 1.28.8.107 1.84 0 3.12-.32 1.28-.373 2.24-.853 2.88-1.44z"/></svg>