<svg xmlns="http://www.w3.org/2000/svg" fill="none" viewBox="0 0 169 94"><path fill="#fff" d="M48.616 19.927h-2.824V4.803h2.824v15.124zm3.263 0V9.196h1.579c.335 0 .554.157.659.47l.178.848c.216-.224.442-.426.68-.607.243-.181.498-.338.763-.47.272-.133.561-.234.868-.304.307-.07.642-.105 1.004-.105.586 0 1.105.101 1.559.304.453.195.83.474 1.13.836.306.356.536.785.69 1.287.16.495.24 1.042.24 1.642v6.83h-2.583v-6.83c0-.655-.154-1.161-.46-1.517-.3-.362-.754-.543-1.36-.543a2.69 2.69 0 00-1.255.303c-.39.202-.76.478-1.109.826v7.761h-2.584zm11.554-7.395h5.418v2.155h-5.418v-2.155zm14.944 5.324c.635 0 1.185-.056 1.653-.167a7.2 7.2 0 001.349-.481v-2.751h-1.893a.604.604 0 01-.43-.147.514.514 0 01-.156-.376v-1.59h5.03v6.119a8.513 8.513 0 01-1.202.732 7.67 7.67 0 01-1.328.502c-.467.132-.97.23-1.506.293-.537.07-1.116.104-1.737.104-1.101 0-2.116-.191-3.043-.575a7.232 7.232 0 01-2.406-1.6 7.352 7.352 0 01-1.59-2.448c-.376-.948-.565-1.983-.565-3.106 0-1.137.185-2.18.555-3.127a7.096 7.096 0 011.569-2.448c.683-.683 1.51-1.213 2.478-1.59.97-.376 2.058-.565 3.264-.565 1.234 0 2.3.185 3.2.555.907.362 1.674.837 2.301 1.422l-.815 1.276c-.16.258-.373.387-.638.387a.949.949 0 01-.513-.167 30.529 30.529 0 00-.69-.398 4.393 4.393 0 00-.774-.345 6.103 6.103 0 00-.952-.24 6.917 6.917 0 00-1.213-.094c-.746 0-1.423.125-2.03.376-.6.251-1.112.61-1.537 1.077a4.856 4.856 0 00-.983 1.684c-.23.656-.345 1.388-.345 2.197 0 .871.122 1.649.366 2.332a4.888 4.888 0 001.025 1.716c.44.467.962.826 1.569 1.077a5.274 5.274 0 001.987.366zm16.435 2.071H93.65c-.244 0-.436-.035-.575-.105-.14-.076-.244-.226-.314-.45l-.23-.763c-.272.244-.54.46-.806.649a4.887 4.887 0 01-.805.46c-.279.125-.575.22-.889.282a5.345 5.345 0 01-1.046.094 4.23 4.23 0 01-1.255-.178 2.821 2.821 0 01-.994-.554 2.523 2.523 0 01-.638-.91c-.153-.362-.23-.784-.23-1.265a2.5 2.5 0 01.314-1.193c.216-.397.572-.753 1.067-1.067.495-.32 1.154-.585 1.977-.794.822-.21 1.844-.328 3.064-.356v-.628c0-.718-.153-1.248-.46-1.59-.3-.348-.74-.522-1.318-.522-.418 0-.767.048-1.046.146-.279.098-.523.21-.732.335-.202.118-.39.226-.565.324a1.157 1.157 0 01-.575.146.748.748 0 01-.45-.136 1.07 1.07 0 01-.303-.334l-.47-.827c1.233-1.13 2.722-1.694 4.465-1.694.628 0 1.186.105 1.674.314a3.47 3.47 0 011.255.857c.342.363.6.799.774 1.308.181.509.272 1.067.272 1.673v6.778zm-5.02-1.61c.264 0 .508-.025.732-.074.223-.049.432-.122.627-.22a3.28 3.28 0 00.575-.355c.189-.147.377-.317.565-.513v-1.81c-.753.036-1.384.102-1.893.2-.502.09-.906.209-1.213.355-.307.147-.527.317-.66.513a1.157 1.157 0 00-.187.638c0 .453.132.777.397.972.272.196.624.293 1.056.293zm7.56 1.61V9.196h1.58c.334 0 .554.157.659.47l.167.795a6.39 6.39 0 01.586-.575c.209-.174.428-.324.659-.45a3.555 3.555 0 011.642-.408c.676 0 1.23.185 1.663.555.439.362.767.847.983 1.454a3.17 3.17 0 01.627-.91c.251-.258.527-.468.827-.628.3-.16.617-.279.952-.356a4.66 4.66 0 011.025-.115c.592 0 1.119.091 1.579.272.46.182.847.447 1.161.795.314.349.551.774.711 1.276.167.502.251 1.078.251 1.726v6.83h-2.583v-6.83c0-.683-.15-1.196-.45-1.537-.3-.35-.739-.524-1.318-.524-.265 0-.512.046-.743.136a1.807 1.807 0 00-.596.398c-.167.167-.3.38-.397.638a2.493 2.493 0 00-.147.889v6.83h-2.594v-6.83c0-.718-.146-1.241-.439-1.569-.286-.328-.711-.492-1.276-.492a2.07 2.07 0 00-1.046.283c-.321.181-.62.432-.9.753v7.855h-2.583zm22.044-10.899a5.15 5.15 0 011.862.325 4.05 4.05 0 011.475.951c.411.412.732.92.962 1.527.23.6.345 1.287.345 2.06 0 .196-.01.36-.031.492a.706.706 0 01-.094.304.39.39 0 01-.178.157.871.871 0 01-.293.042h-6.631c.077 1.101.373 1.91.889 2.426.516.516 1.199.774 2.05.774a3.5 3.5 0 001.077-.146c.307-.098.572-.206.795-.325.23-.118.429-.226.596-.324.175-.097.342-.146.502-.146a.556.556 0 01.471.24l.753.942a4.413 4.413 0 01-.962.847 5.735 5.735 0 01-1.119.544 6.227 6.227 0 01-1.182.282 8.36 8.36 0 01-1.161.084 5.81 5.81 0 01-2.082-.366 4.754 4.754 0 01-1.673-1.098c-.474-.489-.847-1.088-1.119-1.8-.272-.718-.408-1.547-.408-2.489 0-.732.118-1.419.355-2.06a4.964 4.964 0 011.015-1.684 4.836 4.836 0 011.621-1.14c.642-.28 1.363-.419 2.165-.419zm.053 1.852c-.753 0-1.343.212-1.768.638-.425.425-.697 1.028-.816 1.81h4.853c0-.336-.045-.65-.136-.942a2.18 2.18 0 00-.418-.785 1.925 1.925 0 00-.711-.523 2.368 2.368 0 00-1.004-.198z"/><path fill="#FF8" d="M21.964 47.595v.064c-.192 1.668-.32 3.657-.32 5.068 0 .321.032.642.032.899 0 .128-.097.32-.481.48-1.893.834-4.716 1.412-6.96 1.412C6.6 55.518 2.11 50.835 2.11 43.2c0-7.25 4.49-12.253 11.002-12.253 1.379 0 4.394.417 5.164.674.224.064.513.096.802.096.384 0 .77-.032 1.058-.096.257-.064.45-.096.545-.096.16 0 .193.096.225.288.16 1.957.577 4.298.866 5.87v.064c0 .128-.064.193-.193.193-.192 0-.352-.033-.417-.193-1.379-4.138-4.17-5.741-7.858-5.741-5.132 0-8.564 3.207-8.564 10.2 0 7.377 3.689 12.22 9.43 12.22 3.977 0 5.902-1.732 7.377-6.832.032-.128.064-.16.16-.16h.097c.096.032.16.032.16.16zm14.604 3.785v-5.838c-1.123.45-3.208.995-5.1 1.316-2.79.48-4.01 1.86-4.01 4.009 0 1.86 1.187 3.015 3.881 3.015 2.214 0 4.683-1.25 5.229-2.502zm2.213-6.768v7.25c0 1.731.353 2.565 1.411 2.565.481 0 .738-.096 1.09-.352.097-.065.161-.097.225-.097s.096.064.16.129c.033.032.033.064.033.096 0 .16-.193.32-.321.417-.45.449-1.315.802-2.085.802-1.828 0-2.63-.898-2.63-2.663-1.38 1.733-4.042 2.663-6.159 2.663-3.56 0-5.292-1.668-5.292-4.395 0-3.368 2.277-4.747 6.126-5.26 1.412-.193 3.914-.77 5.132-1.219 0-3.689-1.732-4.907-4.298-4.907-3.079 0-4.041.898-4.041 2.213 0 .353.545.802.545 1.347 0 .994-.449 1.443-1.443 1.443-.866 0-1.348-.77-1.348-1.7 0-2.405 2.374-4.362 6.608-4.362 4.298 0 6.287 2.02 6.287 6.03zm28.75 10.553h-5.678c-.224 0-.257-.032-.257-.16v-.065c0-.16.033-.224.225-.256 1.572-.128 1.636-.834 1.636-1.7v-8.436c0-3.272-1.09-4.555-2.694-4.555-1.86 0-3.272.995-4.202 2.599 0 .641.064 1.282.064 2.052v8.051c0 .995.064 1.764 1.732 1.989.064.032.224.096.224.257 0 .16-.096.224-.256.224h-5.581c-.16 0-.257-.064-.257-.224s.096-.257.225-.257c1.732-.128 1.764-.994 1.764-1.989v-8.147c0-3.272-1.123-4.555-2.727-4.555-1.732 0-3.175.93-4.105 2.438v10.264c0 .995.128 1.797 1.603 1.989.193.032.353.096.353.257 0 .16-.096.224-.256.224H43.57c-.224 0-.257-.032-.257-.16v-.065c0-.16.033-.224.225-.256 1.796-.128 1.893-.994 1.893-1.989V41.084c0-.898-.129-.93-1.54-.93h-.289c-.224 0-.353-.129-.353-.289 0-.128.097-.257.257-.289 1.09-.192 2.63-.609 3.881-.93h.032c.16 0 .225.129.225.321v2.181c.994-1.636 2.63-2.534 4.33-2.534 2.502 0 3.72.962 4.33 3.08 1.09-1.957 2.855-3.08 4.715-3.08 3.464 0 4.651 1.989 4.651 6.03v8.051c0 .995.257 1.797 1.892 1.989.065.032.225.096.225.257 0 .16-.096.224-.257.224zm5.54-12.67v7.089c0 2.79 2.277 4.587 5.068 4.587 3.047 0 5.164-1.989 5.164-6.287 0-5.677-2.278-8.18-5.87-8.18-1.925 0-3.56.963-4.362 2.791zm2.373 18.54H69.19c-.225 0-.257-.064-.257-.225 0-.16.032-.224.224-.256 1.797-.257 1.893-1.123 1.893-1.989V41.084c0-.834-.128-.93-1.828-.93-.225 0-.321-.16-.321-.321 0-.128.064-.289.224-.289 1.283-.16 3.016-.61 3.817-.93h.065c.128 0 .192.129.192.32v1.669c1.026-1.283 2.79-2.02 5.004-2.02 4.49 0 7.537 3.175 7.537 8.435 0 5.196-3.335 8.404-7.57 8.404-1.892 0-3.88-.642-4.971-2.085v5.228c0 .866.16 1.796 2.181 1.989.225.032.32.064.32.256 0 .16-.095.225-.256.225zm24.227-9.655v-5.838c-1.123.45-3.208.995-5.1 1.316-2.79.48-4.01 1.86-4.01 4.009 0 1.86 1.187 3.015 3.882 3.015 2.213 0 4.683-1.25 5.228-2.502zm2.213-6.768v7.25c0 1.731.353 2.565 1.411 2.565.482 0 .738-.096 1.091-.352.096-.065.16-.097.225-.097.064 0 .096.064.16.129.032.032.032.064.032.096 0 .16-.192.32-.321.417-.449.449-1.315.802-2.085.802-1.828 0-2.63-.898-2.63-2.663-1.38 1.733-4.041 2.663-6.158 2.663-3.56 0-5.293-1.668-5.293-4.395 0-3.368 2.278-4.747 6.127-5.26 1.411-.193 3.913-.77 5.132-1.219 0-3.689-1.732-4.907-4.298-4.907-3.08 0-4.042.898-4.042 2.213 0 .353.545.802.545 1.347 0 .994-.449 1.443-1.443 1.443-.866 0-1.347-.77-1.347-1.7 0-2.405 2.373-4.362 6.607-4.362 4.299 0 6.287 2.02 6.287 6.03zm10.691 10.521h-5.966c-.16 0-.256-.064-.256-.225 0-.16.096-.256.224-.256 1.796-.193 1.957-.995 1.957-1.989V41.084c0-.898 0-.93-1.508-.93h-.321c-.224 0-.352-.129-.352-.257s.096-.224.256-.256c1.476-.257 2.919-.674 3.913-1.059h.065c.096 0 .192.128.192.32v13.761c0 .995.032 1.86 1.828 1.989.129 0 .225.096.225.256s-.096.225-.257.225zm-3.143-20.496c-.93 0-1.764-.93-1.764-1.86s.834-1.829 1.764-1.829c.962 0 1.764.898 1.764 1.828s-.802 1.86-1.764 1.86zm10.718 18.315c-1.924 1.09-2.63 2.662-2.63 3.913 0 2.245 1.54 3.4 5.485 3.4 3.785 0 5.902-2.31 5.902-3.785 0-2.31-1.412-3.4-8.757-3.528zm3.047-5.004c2.502 0 3.561-1.475 3.561-3.785 0-2.662-1.412-4.715-4.138-4.715-2.63 0-3.689 1.604-3.689 4.042 0 2.47 1.347 4.458 4.266 4.458zm-4.522 2.662v.032c0 .546.962.802 3.239.802 6.447 0 9.591 1.251 9.591 4.683 0 3.465-3.881 5.1-9.142 5.1-5.036 0-6.768-1.988-6.768-3.88 0-1.957 1.38-3.53 3.048-4.427-1.54-.16-2.214-.93-2.214-1.796 0-1.027 1.283-2.021 3.047-2.887-1.924-.802-2.918-2.438-2.918-4.459 0-3.015 2.052-5.196 6.383-5.196 1.668 0 2.918.32 3.977.962.898-.61 2.181-.962 2.855-.962 1.603 0 2.534.481 2.534 1.411 0 .866-.321 1.283-1.251 1.283-1.251 0-.257-1.54-2.181-1.54-.353 0-.802.065-1.283.29 1.058.962 1.635 2.18 1.635 3.752 0 2.887-2.181 5.036-6.286 5.036-.802 0-1.412-.032-2.117-.257-1.348.706-2.117 1.316-2.149 2.053zm32.029 4.523h-5.934c-.16 0-.256-.064-.256-.225 0-.16.032-.224.224-.256 1.732-.128 1.828-.995 1.828-1.989v-8.147c0-3.143-1.924-4.555-3.528-4.555-2.149 0-4.009 1.027-5.26 2.566v10.136c0 1.059.096 1.86 1.828 1.989.192.032.353.096.353.256s-.096.225-.257.225h-5.934c-.224 0-.256-.032-.256-.16v-.065c0-.16.032-.224.224-.256 1.796-.128 1.893-.995 1.893-1.989V41.052c0-.898-.129-.93-1.54-.93h-.289c-.224 0-.32-.16-.32-.289 0-.128.064-.257.224-.289 1.283-.224 2.919-.673 3.817-.93h.096c.161 0 .161.129.161.32v2.31c1.636-1.732 3.753-2.662 5.42-2.662 3.593 0 5.646 2.374 5.646 6.03v8.051c0 .995.096 1.829 1.892 1.989.129 0 .225.096.225.256s-.096.225-.257.225zm3.56-1.283c-.193-1.155-.353-2.566-.61-4.33 0-.064.097-.096.193-.129.064 0 .128-.032.16-.032.064 0 .096.032.128.097 1.316 3.464 3.112 5.003 5.678 5.003 2.822 0 4.49-1.058 4.49-2.63 0-2.405-1.058-3.464-6.575-5.036-2.566-.737-3.881-2.213-3.881-4.17 0-2.18 2.053-4.04 5.42-4.04 1.572 0 2.663.063 4.202.448.193.032.417.064.61.064.385 0 .738-.064.93-.192a.591.591 0 01.225-.064c.064 0 .128.032.16.128.128 1.25.256 2.694.609 4.202 0 .096-.192.192-.32.192-.129 0-.225-.064-.257-.16-1.636-3.304-3.625-3.753-5.742-3.753-2.437 0-3.656 1.09-3.656 2.823 0 1.603 1.187 2.245 4.939 3.336 3.433.994 5.806 2.534 5.806 5.292 0 2.598-1.732 4.523-6.832 4.523-1.924 0-3.945-.578-5.357-1.347-.128-.065-.288-.16-.32-.225zM26.467 81.507L21.88 69.96l-4.683 11.547h9.27zm8.147 8.885h-7.602c-.192 0-.256-.096-.256-.192 0-.257.064-.289.385-.321 1.571-.16 2.149-.674 2.149-1.187 0-.096-.032-.192-.064-.288l-2.31-5.774H16.748l-1.764 4.362c-.16.385-.257.738-.257 1.059 0 .802.642 1.411 2.534 1.86.193.032.257.064.257.289 0 .16-.128.192-.385.192H10.75c-.385 0-.385-.032-.385-.192 0-.225.032-.225.257-.289 1.764-.417 2.245-1.283 2.919-2.887l8.436-20.24c.16-.352.224-.577.48-.577.29 0 .386.225.578.706l8.917 21.426c.32.77 1.443 1.412 2.566 1.54.257.032.32.064.32.289 0 .16-.063.224-.224.224zm5.288 0L32.91 75.638c-.353-.738-.77-.963-1.828-1.059-.129 0-.193-.096-.193-.224 0-.129.032-.225.193-.225h6.126c.193 0 .289.064.289.192 0 .129-.16.225-.257.225-1.058.16-1.604.513-1.604.994 0 .097.032.193.097.321l5.035 11.002 3.946-10.36c.064-.193.096-.353.096-.514 0-.513-.32-.898-.898-1.154a4.427 4.427 0 00-1.251-.353c-.096-.032-.193-.129-.193-.16 0-.129.097-.193.29-.193h5.548c.193 0 .257.064.257.192v.032c0 .032-.032.097-.193.129-.994.224-1.924.77-2.373 1.956l-5.389 13.953c-.032.032-.224.289-.289.289-.256 0-.352-.257-.417-.289zm21.033-3.753v-5.837c-1.123.449-3.208.994-5.1 1.315-2.79.48-4.01 1.86-4.01 4.01 0 1.86 1.187 3.014 3.881 3.014 2.214 0 4.683-1.25 5.229-2.502zm2.213-6.768v7.25c0 1.732.353 2.566 1.411 2.566.481 0 .738-.097 1.09-.353.097-.065.161-.097.225-.097.065 0 .097.065.16.129.033.032.033.064.033.096 0 .16-.193.32-.32.417-.45.449-1.316.802-2.086.802-1.828 0-2.63-.898-2.63-2.662-1.38 1.732-4.041 2.662-6.158 2.662-3.56 0-5.293-1.668-5.293-4.394 0-3.368 2.277-4.748 6.127-5.26 1.41-.193 3.913-.77 5.132-1.22 0-3.688-1.733-4.907-4.298-4.907-3.08 0-4.042.898-4.042 2.213 0 .353.545.802.545 1.347 0 .994-.449 1.444-1.443 1.444-.866 0-1.347-.77-1.347-1.7 0-2.406 2.373-4.363 6.607-4.363 4.298 0 6.287 2.021 6.287 6.03zm10.691 10.521h-5.966c-.16 0-.257-.064-.257-.224s.097-.257.225-.257c1.796-.192 1.957-.994 1.957-1.989V76.343c0-.898 0-.93-1.508-.93h-.32c-.225 0-.353-.128-.353-.257 0-.128.096-.224.256-.256 1.476-.257 2.919-.674 3.913-1.059h.064c.097 0 .193.129.193.321v13.76c0 .995.032 1.86 1.828 1.989.129 0 .225.096.225.257 0 .16-.097.224-.257.224zm-3.143-20.496c-.93 0-1.764-.93-1.764-1.86s.834-1.829 1.764-1.829c.962 0 1.764.898 1.764 1.829 0 .93-.802 1.86-1.764 1.86zm11.392 20.496h-5.966c-.225 0-.257-.064-.257-.224s.032-.225.224-.257c1.797-.16 1.829-.994 1.829-1.989V68.71c0-.834 0-.93-1.829-.93-.224 0-.352-.128-.352-.257 0-.096.096-.224.256-.256 1.059-.16 3.047-.674 4.042-1.059h.064c.064 0 .064.129.064.321v21.394c0 .995.16 1.829 1.957 1.989.128 0 .224.096.224.257 0 .16-.096.224-.256.224zM96.59 86.64v-5.837c-1.123.449-3.208.994-5.1 1.315-2.79.48-4.01 1.86-4.01 4.01 0 1.86 1.187 3.014 3.882 3.014 2.213 0 4.683-1.25 5.228-2.502zm2.213-6.768v7.25c0 1.732.353 2.566 1.411 2.566.481 0 .738-.097 1.091-.353.096-.065.16-.097.224-.097.065 0 .097.065.161.129.032.032.032.064.032.096 0 .16-.193.32-.321.417-.449.449-1.315.802-2.085.802-1.828 0-2.63-.898-2.63-2.662-1.38 1.732-4.041 2.662-6.158 2.662-3.56 0-5.293-1.668-5.293-4.394 0-3.368 2.278-4.748 6.127-5.26 1.41-.193 3.913-.77 5.132-1.22 0-3.688-1.733-4.907-4.299-4.907-3.079 0-4.041.898-4.041 2.213 0 .353.545.802.545 1.347 0 .994-.449 1.444-1.443 1.444-.866 0-1.347-.77-1.347-1.7 0-2.406 2.373-4.363 6.607-4.363 4.298 0 6.287 2.021 6.287 6.03zm7.965-2.117v7.09c0 2.79 2.277 4.586 5.068 4.586 3.207 0 5.164-1.989 5.164-6.287 0-5.613-2.021-8.18-5.549-8.18-1.925 0-3.881.963-4.683 2.791zm-2.021 12.574v-21.62c0-.834-.128-.93-1.828-.93-.225 0-.321-.128-.321-.257 0-.128.064-.224.224-.256.963-.16 2.855-.674 3.817-1.059h.065c.128 0 .192.129.192.321v9.398c1.026-1.347 3.079-2.085 5.325-2.085 4.49 0 7.217 3.112 7.217 8.436 0 5.26-3.208 8.404-7.57 8.404-1.796 0-3.817-.866-4.812-2.02-.737.705-1.122 1.09-1.956 1.924a.242.242 0 01-.128.064c-.129 0-.225-.097-.225-.321zm23.301.064h-5.966c-.225 0-.257-.064-.257-.224s.032-.225.225-.257c1.796-.16 1.828-.994 1.828-1.989V68.71c0-.834 0-.93-1.828-.93-.225 0-.353-.128-.353-.257 0-.096.096-.224.257-.256 1.058-.16 3.047-.674 4.041-1.059h.064c.064 0 .064.129.064.321v21.394c0 .995.161 1.829 1.957 1.989.128 0 .225.096.225.257 0 .16-.097.224-.257.224zm5.361-8.307l9.911-1.123c.128 0 .161-.064.161-.32 0-2.727-1.38-5.87-5.036-5.87-2.951 0-5.036 2.373-5.036 6.671v.642zm11.9.032l-11.836 1.026c.449 4.106 3.079 6.19 6.094 6.19 2.278 0 3.946-.833 5.197-2.437a.29.29 0 01.256-.128c.096 0 .161 0 .225.064s.16.16.16.256c0 .033-.032.065-.032.097-1.091 2.245-3.208 3.496-6.191 3.496-4.907 0-7.986-3.368-7.986-8.436 0-5.196 3.175-8.404 7.634-8.404 3.592 0 6.864 2.695 6.864 7.474 0 .61-.064.77-.385.802zm6.151 8.275c-.867 0-1.604-.802-1.604-1.732 0-1.058.737-1.828 1.604-1.828.866 0 1.603.77 1.603 1.828 0 .93-.737 1.732-1.603 1.732zm1.603-22.228v.224c-.224 2.534-.353 3.85-.641 7.73a323.1 323.1 0 00-.513 7.635c-.033.577-.097.609-.449.609-.353 0-.417-.032-.45-.61a323.1 323.1 0 00-.513-7.633c-.288-3.882-.417-5.197-.641-7.73v-.225c0-1.09.609-1.572 1.604-1.572.994 0 1.603.481 1.603 1.572z"/></svg>