<svg width="251" height="168" fill="none" xmlns="http://www.w3.org/2000/svg"><path d="M77.376 141.631c-.227-1.28-.261-2.462-.102-3.545.175-.999.478-2.02.909-3.063l3.905-10.713a233.961 233.961 0 014.14-10.887 848.392 848.392 0 015.92-14.233c2.06-4.76 4.111-9.561 6.155-14.406.11-.372.263-.75.459-1.136.195-.386.368-.9.518-1.543l-2.561.448c-2.205.474-4.402.99-6.59 1.55a88.015 88.015 0 01-6.614 1.42c-1.778.4-3.294 1.28-4.548 2.644a451.442 451.442 0 01-9.788 12.535 1246.361 1246.361 0 00-9.984 12.173 16.227 16.227 0 01-2.01 2.067 33.915 33.915 0 01-2.054 1.811c-.226.216-.475.303-.746.262-.271-.04-.62-.023-1.047.052a1.6 1.6 0 00.097-.941c-.06-.341-.02-.612.12-.813a35.043 35.043 0 011.602-2.128 240.04 240.04 0 001.625-2 941.11 941.11 0 018.419-10.579 504.386 504.386 0 018.547-10.602c.381-.33.662-.732.843-1.203.265-.487.609-1.03 1.03-1.632-.924.25-1.72.477-2.388.681l-2.049.359a1577.354 1577.354 0 01-18.792 4.212 1642.508 1642.508 0 00-18.665 4.19 374.109 374.109 0 00-9.234 2.275 372.768 372.768 0 01-9.235 2.276c-1.01.265-2.134.373-3.375.327a4.3 4.3 0 01-.626-.551 4062 4062 0 01-.648-.678c-.116-.156-.061-.342.165-.557l.526-.752c.397-.245 1.007-.528 1.83-.848a1059.16 1059.16 0 0122.777-5.569 271.92 271.92 0 0111.132-2.74c3.626-.898 7.337-1.811 11.133-2.74a362.302 362.302 0 019.28-2.02l9.558-1.936c1.622-.283 2.925-1.127 3.907-2.53 6.074-7.926 12.078-15.751 18.011-23.476a4216.76 4216.76 0 0018.139-23.498 350.887 350.887 0 014.762-6.64 380.574 380.574 0 004.867-6.79c.366-.417.654-.775.865-1.076.211-.3.514-.574.911-.82.241-.13.582-.189 1.024-.178.512-.09.912-.072 1.198.054.201.14.382.417.543.829.247.396.365.816.356 1.257-.01.442-.147.906-.413 1.392a13.89 13.89 0 00-.564 1.287c-3.677 8.034-7.32 16.018-10.928 23.952a3074.338 3074.338 0 00-10.928 23.951 20.317 20.317 0 00-1.104 2.701 37.334 37.334 0 01-1.315 3.002c2.265-.133 4.487-.258 6.667-.375 2.164-.203 4.44-.03 6.826.521a23.58 23.58 0 01-1.724.698l-1.491.525c-1.763.484-3.568.976-5.416 1.475l-5.287 1.453c-1.195.21-1.973.785-2.334 1.728a1410.09 1410.09 0 01-10.046 24.458 1253.255 1253.255 0 00-9.918 24.435 55.263 55.263 0 00-1.42 3.152 35.336 35.336 0 01-1.398 3.28 6.704 6.704 0 01-1.346 2.083c-.507.616-1.2 1.177-2.078 1.683zm8.032-61.058c.015.086.123.199.324.34l6.614-1.422c2.204-.473 4.416-.904 6.636-1.293 1.536-.269 2.696-1.175 3.477-2.72a547.375 547.375 0 016.681-15.158 746.681 746.681 0 006.704-15.03 425.47 425.47 0 002.195-4.74c.767-1.63 1.491-3.252 2.172-4.867-.015-.085-.108-.113-.279-.083a46896.14 46896.14 0 00-17.273 22.423 3876.084 3876.084 0 00-17.251 22.55zm68.725 1.437c2.068-1.242 4.424-2.842 7.069-4.8 2.63-2.044 4.948-3.858 6.956-5.44 1.259-.837 2.281-1.28 3.065-1.329.853-.15 1.403-.026 1.65.371.231.312.152.853-.239 1.626-.321.672-1.069 1.418-2.243 2.24a752.126 752.126 0 01-7.431 4.995 782.455 782.455 0 01-7.476 4.74c-1.741 1.096-3.476 1.488-5.205 1.174-1.673-.499-2.528-1.845-2.566-4.038.02-.883.147-1.653.382-2.31a9.53 9.53 0 00.382-2.31c.174-.999.322-1.904.441-2.717.205-.828.227-1.448.066-1.86-.091-.511-.443-.758-1.056-.739-.527.005-1.436.34-2.726 1.005a111.82 111.82 0 00-3.921 3.194 103.627 103.627 0 00-3.666 3.149l-3.341 3.488a76.247 76.247 0 01-3.342 3.488c-.14.2-.273.444-.398.73a8.414 8.414 0 01-.806.669l-1.189.736c-.482.26-1.025.179-1.628-.243-.502-.352-.749-.75-.739-1.19a2.23 2.23 0 01.262-1.498l1.503-3.43a60.693 60.693 0 011.375-3.409 83.585 83.585 0 001.841-3.753c.572-1.244 1.135-2.53 1.691-3.86.336-.586.544-1.15.624-1.692 1.133-2.046 2.101-2.787 2.905-2.224.86.377.823 1.66-.108 3.846a49.373 49.373 0 00-1.165 3.107c-.36.943-.806 1.9-1.338 2.874-.195.386-.566 1.023-1.113 1.91a34.735 34.735 0 00-1.406 2.49c-.406.687-.594 1.115-.563 1.286-.055.186.346-.28 1.204-1.398a75.802 75.802 0 015.117-5.383 50.072 50.072 0 015.743-4.832 21.776 21.776 0 012.613-1.645c1.033-.62 1.985-.963 2.854-1.027.939-.165 1.76 0 2.464.492.789.478 1.39 1.385 1.804 2.72a6.129 6.129 0 01-.086 3.975 35.753 35.753 0 00-1.284 3.92c-.31 1.725-.276 2.907.101 3.545.363.552 1.337.338 2.923-.643zm31.418-14.472c.995-.35 1.954-.65 2.877-.9l2.727-1.004c.652-.29 1.483-.568 2.493-.832a20.575 20.575 0 002.62-.855l.897-.157c.256-.044.613-.019 1.07.077.286.126.545.345.777.656.301.211.44.495.415.851.03.17-.103.414-.399.73-.296.316-.529.488-.7.518-.823.32-1.604.633-2.342.938-.668.205-1.421.424-2.259.66a98.952 98.952 0 01-4.707 1.746c-1.507.44-2.998.965-4.474 1.575-.908.335-1.601.896-2.077 1.683-1.49 2.02-2.734 3.69-3.732 5.008-.912 1.304-2.134 2.353-3.665 3.15-1.135.55-2.229.83-3.284.838-1.07-.077-1.945-.54-2.624-1.389s-.991-2.114-.938-3.795c.038-1.766.606-4.021 1.703-6.764a25.28 25.28 0 013.023-5.28 79.364 79.364 0 014.115-5.076 11.324 11.324 0 011.95-1.66c.692-.562 1.543-.974 2.552-1.24 1.421-.424 2.577-.362 3.466.186.875.463 1.398 1.427 1.571 2.893.121.683.122 1.43.002 2.243-.135.727-.219 1.49-.254 2.288-.095.457-.232.92-.412 1.392-.111.371-.241.878-.391 1.52zm-12.179 2.791c-1.133 2.046-1.586 3.709-1.358 4.989.212 1.194.74 1.938 1.584 2.23.915.192 1.881-.065 2.9-.771 1.089-.807 1.901-2.18 2.437-4.122-1.366.239-2.514.22-3.443-.057-.945-.363-1.652-1.12-2.12-2.269zm9.383-10.352c-2.821 1.461-4.729 3.599-5.726 6.413a2.3 2.3 0 00-.074 1.069c.061.34.335.645.822.911.603.423 1.324.517 2.163.282.924-.25 1.496-.746 1.716-1.488.391-.773.681-1.615.871-2.528.275-.928.473-1.798.592-2.611.141-.2.138-.464-.008-.79-.146-.327-.265-.746-.356-1.258zm38.407 10.304c2.068-1.241 4.424-2.841 7.069-4.8 2.629-2.044 4.948-3.857 6.955-5.44 1.26-.836 2.282-1.279 3.065-1.328.854-.15 1.404-.026 1.65.371.232.311.152.853-.239 1.626-.321.672-1.068 1.418-2.243 2.24a763.876 763.876 0 01-7.43 4.995 795.212 795.212 0 01-7.476 4.74c-1.742 1.096-3.477 1.488-5.205 1.174-1.673-.499-2.528-1.845-2.566-4.038.019-.883.146-1.653.382-2.31.22-.743.347-1.513.381-2.31.175-1 .322-1.905.442-2.717.205-.828.227-1.448.066-1.86-.091-.512-.443-.758-1.056-.739-.527.005-1.436.34-2.726 1.005a112.781 112.781 0 00-3.922 3.194 105.456 105.456 0 00-3.666 3.149l-3.341 3.488a75.674 75.674 0 01-3.341 3.488c-.141.2-.273.444-.399.73a8.392 8.392 0 01-.805.668l-1.19.736c-.481.26-1.024.18-1.627-.243-.503-.352-.749-.748-.74-1.19-.091-.512-.003-1.011.262-1.498l1.503-3.43a61.461 61.461 0 011.375-3.408 82.552 82.552 0 001.842-3.753 122.68 122.68 0 001.691-3.86c.336-.586.543-1.15.623-1.692 1.133-2.046 2.102-2.788 2.906-2.225.859.378.823 1.66-.109 3.847a48.764 48.764 0 00-1.164 3.107c-.361.943-.807 1.9-1.338 2.873-.196.387-.566 1.023-1.113 1.91a34.735 34.735 0 00-1.406 2.49c-.406.687-.594 1.116-.564 1.287-.055.185.347-.28 1.204-1.399a75.779 75.779 0 015.117-5.382 50.07 50.07 0 015.744-4.832 21.682 21.682 0 012.612-1.645c1.034-.62 1.985-.963 2.854-1.027.939-.165 1.761 0 2.465.492.789.478 1.39 1.385 1.803 2.72a6.116 6.116 0 01-.086 3.974 35.744 35.744 0 00-1.284 3.92c-.309 1.726-.275 2.908.102 3.546.362.552 1.336.338 2.923-.644z" fill="#F89"/></svg>