<svg width="248" height="197" fill="none" xmlns="http://www.w3.org/2000/svg"><path d="M50.073 107.3c-1.71.096-3.352.281-4.928.557a91.273 91.273 0 01-4.955.409c-2.005.147-4.1.361-6.285.641a44.235 44.235 0 00-6.18 1.232c-2.804.794-5.288 2.244-7.453 4.348-2.605 2.485-3.019 5.298-1.24 8.439.62 1.211 1.364 2.249 2.229 3.113a66.353 66.353 0 003.211 2.636 48.095 48.095 0 009.658 5.47 88.106 88.106 0 0010.846 3.586c9.978 2.419 19.84 2.473 29.585.161a34.053 34.053 0 005.484-1.72 31.193 31.193 0 005.3-2.753c.295-.052.483-.135.564-.251 3.428-2.426 5.367-4.947 5.815-7.564.547-2.633.285-5.531-.785-8.694-1.274-3.737-3.252-7.147-5.934-10.231a509.432 509.432 0 00-6.069-6.706 514.618 514.618 0 01-6.069-6.706 161.493 161.493 0 01-6.87-7.783 38.287 38.287 0 01-5.428-9.102c-2.599-6.043-2.085-11.716 1.542-17.019a31.818 31.818 0 013.776-4.466 35.019 35.019 0 014.377-3.658c4.262-2.877 8.66-5.27 13.196-7.179 4.536-1.909 9.391-3.163 14.566-3.763a28.72 28.72 0 012.834-.343 9.254 9.254 0 012.939.248c4.893.668 7.916 3.388 9.07 8.16.944 3.592.711 7.135-.699 10.63a70.543 70.543 0 01-1.95 4.452 36.646 36.646 0 01-2.472 4.086 126.963 126.963 0 01-5.076 7.435 371.837 371.837 0 01-5.424 7.19 15.378 15.378 0 01-1.632 1.96c-.504.596-1.248.98-2.233 1.152-.285-.458-.355-.852-.21-1.181l.607-.868 5.102-7.287a185.915 185.915 0 004.929-7.409 52.191 52.191 0 002.853-5.37l2.357-5.59c1.057-2.62 1.193-5.284.407-7.989-.414-1.755-1.17-3.146-2.266-4.172-1.115-1.125-2.634-1.672-4.558-1.64-2.371-.195-4.64-.103-6.807.275-9.798 2.017-18.423 6.062-25.874 12.135a28.158 28.158 0 00-4.003 4.05c-3.668 4.498-4.314 9.432-1.936 14.803a38.377 38.377 0 002.972 5.572 47.04 47.04 0 003.754 4.826 513.235 513.235 0 006.068 6.705 935.39 935.39 0 006.216 6.68 70.032 70.032 0 015.6 6.635 47.007 47.007 0 014.522 7.433c.586 1.014 1.008 1.956 1.264 2.825.355.851.669 1.761.943 2.728.926 3.493.878 6.648-.144 9.466-1.022 2.818-2.911 5.331-5.667 7.538-2.218 1.808-4.612 3.191-7.185 4.148a56.167 56.167 0 01-7.969 2.306c-15.557 3.328-30.571 1.434-45.042-5.682a73.39 73.39 0 01-5.786-3.405c-1.839-1.201-3.574-2.675-5.204-4.42-3.228-3.294-4.597-6.709-4.109-10.246.39-3.519 2.553-6.486 6.491-8.9 2.27-1.513 4.677-2.543 7.22-3.089a52.87 52.87 0 017.832-1.368 30.384 30.384 0 0112.895 1.402c.33.145.603.249.817.313.215.065.438.178.67.34l.027.148c.017.098-.015.205-.096.321zm84.605-23.614a46.72 46.72 0 013.32-1.037l3.145-1.159c.753-.334 1.712-.654 2.877-.959 1.164-.305 2.172-.633 3.024-.985.492-.086.837-.147 1.034-.18.296-.052.707-.023 1.235.088.33.145.629.398.896.757.348.244.508.571.48.982.035.197-.118.478-.46.842-.341.364-.611.563-.808.598-.95.369-1.85.73-2.702 1.08-.77.237-1.639.49-2.607.761-1.802.72-3.612 1.392-5.431 2.015a50.608 50.608 0 00-5.162 1.815c-1.048.387-1.847 1.034-2.397 1.942a590.285 590.285 0 01-4.304 5.777c-1.053 1.504-2.463 2.714-4.229 3.632-1.309.635-2.572.957-3.789.967-1.235-.089-2.244-.623-3.028-1.603-.784-.98-1.145-2.44-1.084-4.379.044-2.038.698-4.64 1.963-7.804a29.21 29.21 0 013.487-6.091 91.395 91.395 0 014.748-5.855 13.048 13.048 0 012.249-1.915c.799-.648 1.781-1.124 2.945-1.429 1.64-.49 2.973-.418 4 .215 1.009.534 1.613 1.647 1.812 3.338.141.787.142 1.65.004 2.588a18.94 18.94 0 00-.292 2.64c-.11.526-.268 1.061-.476 1.605a32.411 32.411 0 00-.45 1.754zm-14.054 3.217c-1.306 2.36-1.828 4.278-1.566 5.755.246 1.379.855 2.236 1.83 2.574 1.055.222 2.17-.075 3.346-.89 1.256-.93 2.193-2.514 2.81-4.754-1.576.275-2.9.253-3.973-.067-1.09-.419-1.906-1.291-2.447-2.618zM131.45 74.96c-3.255 1.686-5.457 4.152-6.606 7.398-.127.428-.156.84-.086 1.233.07.394.387.745.949 1.052.696.488 1.528.596 2.496.326 1.066-.288 1.726-.86 1.98-1.717.451-.89.786-1.863 1.004-2.916a21.75 21.75 0 00.683-3.013c.162-.231.159-.535-.01-.912-.168-.376-.305-.86-.41-1.45zm37.425 10.82a32.502 32.502 0 001.494-1.022 7.88 7.88 0 001.051-.945 279.624 279.624 0 004.941-3.909 276.123 276.123 0 014.942-3.909c.88-.762 1.862-1.239 2.945-1.428.394-.069.815.01 1.261.237.447.226.786.42 1.018.583.65.8.405 1.706-.735 2.717a31.142 31.142 0 01-2.814 2.167 26.74 26.74 0 00-2.936 2.34l-6.79 6.364a334.371 334.371 0 00-6.816 6.216c-1.383 1.358-2.436 2.862-3.159 4.51a121.731 121.731 0 01-2.314 4.973 239.088 239.088 0 01-7.039 15.239 146.22 146.22 0 01-8.701 14.463 40.016 40.016 0 01-4.436 5.039 9.31 9.31 0 01-1.563 1.491 8.772 8.772 0 01-2.058 1.273c-1.049.387-2.02.353-2.913-.1-.893-.453-1.355-1.336-1.386-2.651-.21-1.181-.076-2.423.404-3.725a38.355 38.355 0 013.631-8.705 67.4 67.4 0 014.997-7.877 882.795 882.795 0 018.392-11.06 981.488 981.488 0 018.514-11.233l1.162-2.03c.469-.792.888-1.576 1.258-2.351a211.43 211.43 0 003.483-8.68 364.367 364.367 0 013.405-9.121c-.789.137-1.394.446-1.816.926l-1.025 1.093a263.95 263.95 0 01-4.784 4.794c-1.563 1.492-3.357 2.82-5.384 3.987-.602.612-1.199.97-1.79 1.074-1.918.64-3.506.561-4.765-.234-1.276-.893-1.843-2.368-1.701-4.423a24.08 24.08 0 01.535-2.987 34.02 34.02 0 01.857-2.89 142.986 142.986 0 011.655-4.4l1.976-4.305c.388-.677.859-1.165 1.415-1.465.539-.399 1.272-.273 2.2.377a17.56 17.56 0 00-.354 1.432c-.029.411-.205.848-.529 1.31a53.743 53.743 0 01-1.671 5.165 189.502 189.502 0 00-1.845 5.043c-.109.527-.21 1.102-.302 1.728.007.608-.117 1.34-.371 2.196.753-.334 1.376-.545 1.869-.63a4.391 4.391 0 001.572-.58 145.285 145.285 0 003.57-3.06 86.516 86.516 0 003.395-3.182 100.665 100.665 0 004.045-4.666 247.18 247.18 0 014.019-4.813c.486-.694 1.047-1.25 1.684-1.665.619-.514 1.466-.611 2.538-.291 1.519.547 1.858 2.162 1.015 4.847a206.71 206.71 0 01-2.242 7.092 141.882 141.882 0 00-2.216 7.24 4.931 4.931 0 00-.46.841c-.046.313-.155.84-.328 1.58zm-16.925 27.321a73.553 73.553 0 00-4.331 5.629 87.773 87.773 0 00-4.226 6.221c-1.26 2.047-2.342 3.962-3.243 5.744-.902 1.781-1.462 3.199-1.681 4.252.88-.763 2.026-2.029 3.437-3.798a80.813 80.813 0 003.983-5.873 234.21 234.21 0 003.582-6.412c1.127-2.228 1.954-4.148 2.479-5.763zm49.538-41.09a46.77 46.77 0 013.32-1.036l3.146-1.159c.753-.334 1.711-.654 2.876-.96 1.164-.304 2.173-.633 3.024-.984l1.034-.181c.296-.052.707-.022 1.235.089.331.145.629.397.897.757.348.243.507.57.479.982.035.197-.118.477-.46.842-.341.364-.61.563-.807.597-.95.37-1.851.73-2.703 1.082-.77.236-1.639.49-2.607.76-1.801.72-3.612 1.392-5.431 2.015a50.583 50.583 0 00-5.162 1.815c-1.048.386-1.847 1.034-2.397 1.942a588.891 588.891 0 01-4.304 5.777c-1.053 1.503-2.463 2.714-4.229 3.632-1.309.635-2.572.957-3.789.966-1.235-.088-2.244-.623-3.028-1.602-.784-.98-1.145-2.44-1.084-4.38.044-2.037.698-4.639 1.963-7.804a29.257 29.257 0 013.487-6.09 91.395 91.395 0 014.748-5.855 13.048 13.048 0 012.249-1.916c.799-.647 1.781-1.123 2.945-1.428 1.64-.49 2.973-.418 4 .215 1.009.534 1.613 1.647 1.813 3.338.14.787.141 1.65.003 2.588a18.933 18.933 0 00-.292 2.64 10.402 10.402 0 01-.476 1.605 32.436 32.436 0 00-.45 1.754zm-14.054 3.218c-1.306 2.36-1.828 4.278-1.565 5.755.245 1.378.855 2.236 1.829 2.573 1.055.222 2.17-.074 3.346-.889 1.256-.93 2.193-2.515 2.81-4.754-1.576.275-2.9.253-3.973-.067-1.09-.42-1.906-1.292-2.447-2.618zm10.826-11.942c-3.255 1.686-5.457 4.151-6.606 7.398a2.657 2.657 0 00-.086 1.233c.07.394.387.744.949 1.052.697.487 1.528.596 2.496.325 1.066-.287 1.726-.86 1.98-1.716.451-.89.786-1.863 1.004-2.916a21.76 21.76 0 00.683-3.013c.162-.231.159-.535-.01-.912-.168-.376-.305-.86-.41-1.45z" fill="#FD8"/></svg>