<svg xmlns="http://www.w3.org/2000/svg" fill="none" viewBox="0 0 268 192"><path fill="#7D7" d="M59.748 61.988c-1.918.641-3.383 1.254-4.397 1.838a208.6 208.6 0 00-12.052 5.923 128.081 128.081 0 00-11.6 6.757 64.36 64.36 0 00-5.238 3.966 360.772 360.772 0 00-5.212 4.113c-.342.365-.733.738-1.173 1.12-.458.283-.968.271-1.53-.036-1.008-.534-.905-1.669.311-3.405a40.623 40.623 0 014.152-4.08 92.436 92.436 0 0110.435-7.314 134 134 0 0111.234-6.237 132.38 132.38 0 017.855-3.815 971.629 971.629 0 018.003-3.842c.753-.335 1.34-.743 1.764-1.223.52-.498.909-1.175 1.163-2.032a530.94 530.94 0 002.673-6.409 534.159 534.159 0 012.674-6.409c.029-.41.075-.724.138-.938.163-.231.275-.454.339-.668a14.81 14.81 0 01.825-1.363c.324-.463.825-.5 1.504-.112.33.145.588.455.773.93.186.475.265.918.236 1.33a33.68 33.68 0 01-.859 2.891l-.859 2.892a691.002 691.002 0 00-2.733 7.79c.654-.318 1.179-.511 1.573-.58.394-.07.828-.197 1.303-.381a198.44 198.44 0 0114.208-4.931 92.98 92.98 0 0114.617-3.48 39.436 39.436 0 015.84-.569 122.92 122.92 0 016.041-.299c2.138.031 4.305.514 6.502 1.448 2.278.818 3.993 2.192 5.148 4.122 1.235 1.813 1.807 3.896 1.715 6.247a15.511 15.511 0 01-.883 5.333 29.474 29.474 0 01-2.049 4.776 53.653 53.653 0 01-5.471 7.814 80.537 80.537 0 01-6.419 6.762 109.976 109.976 0 01-16.758 13.755 191.973 191.973 0 01-18.516 10.713 239.168 239.168 0 01-10.705 4.925 111.783 111.783 0 01-11.01 4.065 33.117 33.117 0 01-4.232 1.048 36.283 36.283 0 00-4.38 1.073c.285.458.502.826.653 1.104.15.278.31.605.478.982a65.074 65.074 0 007.689 9.006 130.908 130.908 0 008.86 7.887c8.575 7.125 17.606 13.103 27.094 17.935 9.586 4.815 19.836 8.498 30.748 11.05 4.253 1.081 8.478 1.71 12.673 1.887 4.311.258 8.628.262 12.95.011a52.38 52.38 0 006.727-.724c2.283-.3 4.525-.541 6.727-.724.788-.139 1.396-.144 1.825-.016a10.637 10.637 0 01-3.606 2.003 69.19 69.19 0 01-3.858 1.439c-4.965 1.786-9.979 2.717-15.043 2.794-4.949.158-9.952-.284-15.011-1.325-16.475-2.996-31.787-8.887-45.936-17.673a188.193 188.193 0 01-14.73-10.055 115.763 115.763 0 01-13.243-11.99 100.057 100.057 0 01-4.07-4.92 99.729 99.729 0 00-4.07-4.921c-.268-.359-.534-.718-.801-1.078a5.874 5.874 0 00-.652-1.103 1418.256 1418.256 0 01-9.655 18.599c-3.195 6.044-7.05 11.797-11.567 17.26a136.752 136.752 0 017.872-19.2 721.015 721.015 0 009.037-18.644c-.463-.324-.86-.559-1.19-.704a5.994 5.994 0 01-1.018-.583 5.26 5.26 0 00-1.217-.853 2.733 2.733 0 01-1.096-1.026c-.632-.701-.91-1.413-.836-2.137.075-.724.324-1.326.747-1.807.88-.763 2.074-.618 3.581.438.73.684 1.386 1.229 1.965 1.635a13.94 13.94 0 01.868-1.98c.29-.66.846-.961 1.668-.902.296-.052.516-.243.66-.573l.287-.964a3038.762 3038.762 0 019.436-20.694c3.154-6.848 6.29-13.795 9.41-20.84a1.88 1.88 0 00.312-.817c.046-.313.174-.74.382-1.285zM43.392 110.7c2.022-.051 3.862-.272 5.519-.665a99.45 99.45 0 005.188-1.672 147.231 147.231 0 0017.022-7.1 228.144 228.144 0 0016.213-9.09 121.49 121.49 0 0014.57-10.63c4.482-3.934 8.632-8.318 12.447-13.15a31.813 31.813 0 003.648-5.21c1.1-1.817 1.901-3.887 2.404-6.209.404-2.304.122-4.184-.846-5.638-.986-1.553-2.583-2.542-4.791-2.967-3.013-.384-5.925-.482-8.735-.294-6.588.65-12.915 1.912-18.98 3.79a257.691 257.691 0 00-18.266 6.1c-1.82.624-3.18 1.827-4.083 3.61A7871.76 7871.76 0 0054.407 85.16a7965.025 7965.025 0 01-10.347 23.29l-.668 2.25zm123.687-27.045c-.891 1.273-2.365 2.7-4.421 4.28-1.958 1.561-4.026 2.787-6.204 3.677-2.079.873-4.009 1.161-5.788.864-1.779-.297-2.895-1.725-3.348-4.285a19.25 19.25 0 01-.271-2.39 32.947 32.947 0 01-.054-2.884 513.064 513.064 0 00-6.698 6.05 133.58 133.58 0 01-6.628 5.58 3.975 3.975 0 01-1.912 1.249l-2.016.659c-2.114.675-3.754.303-4.92-1.117-1.165-1.42-1.305-3.07-.42-4.951.388-.678.735-1.297 1.042-1.859a10.6 10.6 0 011.216-1.736c2.16-2.714 4.67-4.881 7.532-6.5 2.861-1.62 6.091-2.593 9.689-2.92 1.316-.028 2.28-.603 2.894-1.726a37.452 37.452 0 001.554-2.405l1.702-2.43c.145-.33.339-.67.582-1.017.243-.347.504-.596.782-.746a3.32 3.32 0 011.008-.33c.492-.086.904-.057 1.234.088.615.603.942 1.307.983 2.112.041.805-.178 1.86-.658 3.162a245.41 245.41 0 00-1.119 4.004 30.028 30.028 0 00-1.127 5.68c-.08 1.842.181 3.319.785 4.43.585 1.015 1.95.978 4.093-.109 1.13-.502 2.323-1.22 3.58-2.15a85.335 85.335 0 013.744-2.943l1.078-.798a1.62 1.62 0 011.277-.529c.527.11.933.395 1.217.852.366.343.23.722-.408 1.138zm-38.541 8.594c2.769-.994 5.581-2.604 8.436-4.832 2.838-2.325 5.068-4.646 6.689-6.961-2.92.716-5.866 2.147-8.837 4.293-2.971 2.146-5.067 4.646-6.288 7.5zm64.604-4.793c2.387-1.434 5.106-3.282 8.158-5.544 3.035-2.36 5.711-4.455 8.028-6.283 1.454-.966 2.633-1.478 3.536-1.535.985-.173 1.62-.03 1.904.428.267.359.174.984-.277 1.876-.37.776-1.233 1.638-2.589 2.586a870.269 870.269 0 01-8.575 5.77 905.314 905.314 0 01-8.627 5.474c-2.01 1.267-4.012 1.72-6.005 1.36-1.93-.576-2.916-2.129-2.958-4.66.022-1.019.17-1.908.442-2.666.254-.857.401-1.746.441-2.667.203-1.152.373-2.197.511-3.135.237-.956.263-1.67.077-2.146-.104-.59-.51-.875-1.217-.852-.608.005-1.657.392-3.146 1.161a130.586 130.586 0 00-4.526 3.688 120.121 120.121 0 00-4.23 3.637l-3.857 4.027a87.518 87.518 0 01-3.857 4.028 4.937 4.937 0 00-.46.842 9.846 9.846 0 01-.93.772l-1.372.85c-.556.301-1.182.208-1.878-.28-.58-.405-.864-.863-.852-1.372-.105-.591-.004-1.167.303-1.729l1.736-3.96a70.286 70.286 0 011.588-3.934 96.668 96.668 0 002.127-4.333c.66-1.435 1.311-2.92 1.953-4.454.388-.678.628-1.329.72-1.954 1.309-2.362 2.426-3.218 3.354-2.569.991.435.948 1.915-.128 4.44a56.45 56.45 0 00-1.345 3.586 27.388 27.388 0 01-1.545 3.317c-.226.446-.654 1.18-1.285 2.205a39.725 39.725 0 00-1.624 2.874c-.469.793-.686 1.288-.651 1.485-.064.215.4-.324 1.39-1.614a87.544 87.544 0 015.906-6.215c2.166-2.107 4.376-3.967 6.629-5.58a25.104 25.104 0 013.015-1.9c1.193-.718 2.291-1.113 3.293-1.188 1.083-.19 2.031-.001 2.842.567.91.551 1.604 1.597 2.08 3.138a7.068 7.068 0 01-.102 4.587 41.46 41.46 0 00-1.484 4.524c-.358 1.992-.32 3.356.115 4.092.418.638 1.542.39 3.372-.744zm59.494-18.821c-.891 1.273-2.365 2.7-4.421 4.279-1.958 1.562-4.026 2.788-6.204 3.678-2.08.873-4.009 1.16-5.788.864-1.779-.297-2.895-1.725-3.349-4.286a19.419 19.419 0 01-.27-2.389 32.948 32.948 0 01-.054-2.884 507.35 507.35 0 00-6.698 6.05 134.096 134.096 0 01-6.628 5.58 3.976 3.976 0 01-1.912 1.249l-2.016.658c-2.114.676-3.754.304-4.92-1.116-1.165-1.42-1.305-3.07-.42-4.952.388-.677.735-1.296 1.042-1.858a10.6 10.6 0 011.216-1.736c2.16-2.715 4.67-4.881 7.532-6.5 2.861-1.62 6.091-2.593 9.689-2.92 1.315-.028 2.28-.603 2.893-1.726a37.077 37.077 0 001.555-2.405l1.702-2.431c.145-.33.339-.669.582-1.016.243-.347.503-.596.782-.746a3.32 3.32 0 011.008-.33c.492-.086.903-.057 1.234.088.614.603.942 1.307.983 2.112.041.805-.178 1.859-.659 3.162a255.02 255.02 0 00-1.119 4.003 30.025 30.025 0 00-1.126 5.68c-.08 1.842.181 3.32.784 4.432.586 1.014 1.951.977 4.094-.11 1.13-.503 2.323-1.22 3.58-2.151a85.332 85.332 0 013.744-2.942l1.077-.798a1.623 1.623 0 011.278-.529c.527.11.933.395 1.217.852.365.342.229.722-.408 1.138zm-38.542 8.594c2.769-.994 5.582-2.604 8.437-4.832 2.838-2.326 5.067-4.646 6.689-6.961-2.92.716-5.866 2.146-8.837 4.293-2.972 2.146-5.068 4.646-6.289 7.5z"/><path stroke="#7D7" stroke-linecap="round" stroke-width="4" d="M129 67.245c1-.5 6.095-4.368 10-3.5 4.5 1 9.333-1.5 11-2.5"/></svg>