<svg width="248" height="171" fill="none" xmlns="http://www.w3.org/2000/svg"><path d="M27.92 139.158c.283-1.369.725-2.59 1.326-3.662a56.608 56.608 0 001.71-3.728 1867.621 1867.621 0 018.14-20.943 5932.867 5932.867 0 018.291-20.838 770.096 770.096 0 018.136-19.491 342.689 342.689 0 018.995-19.113c.18-.472.368-.9.563-1.286.195-.386.382-.814.562-1.285-.542-.082-.856-.115-.942-.1-6.163.983-12.283 1.96-18.361 2.928-5.992.954-12.078 1.88-18.256 2.778a96.563 96.563 0 00-11.074 2.321c-3.54.88-7.24 1.61-11.097 2.193-1.351.323-2.32.316-2.91-.022-.673-.322-.97-.754-.892-1.296-.006-.527.295-1.063.901-1.608.607-.545 1.466-.915 2.576-1.108l12.853-1.97c4.285-.657 8.527-1.307 12.726-1.949a667.832 667.832 0 0022.482-3.512c2.065-.271 4.087-.535 6.066-.791l6.148-1.069c1.21-.122 2.124-.677 2.74-1.664.329-1.113.824-2.034 1.486-2.765.591-.63 1.216-.828 1.875-.59.287.126.46.36.522.7.06.342.029.656-.096.941a8.391 8.391 0 01-.681 2.098c.457.096.984.093 1.582-.011l17.163-2.984c5.705-1.08 11.419-2.117 17.139-3.112a243.11 243.11 0 0013.334-2.978 146.55 146.55 0 0113.462-3c1.623-.282 2.899-.284 3.829-.006 1.015.264 1.577.694 1.683 1.291.092.512-.243 1.098-1.006 1.758-.677.646-1.861 1.16-3.554 1.542-3.229.65-6.61 1.193-10.141 1.63-3.531.439-6.962.947-10.292 1.526l-43.419 7.549c-.683.119-1.207.386-1.573.801a5.84 5.84 0 00-.842 1.202 465.694 465.694 0 01-6.338 14.033 294.92 294.92 0 00-6.083 13.988 940.06 940.06 0 00-9.484 23.025 7482.297 7482.297 0 01-9.252 22.852c-1.094 2.741-2.1 5.731-3.018 8.969a101.878 101.878 0 01-2.784 8.797 3.547 3.547 0 01-1.437 1.569c-.637.375-1.227.522-1.77.44-.543-.082-.96-.449-1.253-1.102-.293-.652-.205-1.635.265-2.948zm59.39-55.32a40.497 40.497 0 012.877-.896l2.726-1.002c.653-.29 1.484-.566 2.493-.829a20.586 20.586 0 002.621-.852l.897-.155c.256-.045.613-.019 1.07.077.287.127.546.345.778.657.302.211.441.495.416.851.031.17-.102.414-.398.73-.295.314-.529.487-.699.517-.824.319-1.604.63-2.342.934-.668.205-1.421.423-2.26.657a98.436 98.436 0 01-4.707 1.742 43.765 43.765 0 00-4.473 1.57c-.909.334-1.601.894-2.077 1.68a506.073 506.073 0 01-3.727 5.002c-.912 1.302-2.133 2.35-3.664 3.144-1.134.55-2.23.828-3.284.835-1.07-.078-1.946-.541-2.626-1.39-.68-.85-.995-2.115-.943-3.795.037-1.766.602-4.02 1.696-6.76a25.249 25.249 0 013.019-5.275 79.15 79.15 0 014.112-5.07 11.301 11.301 0 011.948-1.658c.692-.56 1.543-.972 2.552-1.235 1.422-.423 2.577-.36 3.468.189.875.463 1.4 1.428 1.574 2.893.122.682.123 1.43.005 2.242-.135.727-.218 1.49-.252 2.287-.094.456-.231.92-.411 1.391-.11.371-.24.877-.389 1.519zm-12.181 2.778c-1.131 2.043-1.582 3.705-1.354 4.985.214 1.194.743 1.938 1.588 2.23.915.194 1.882-.062 2.9-.767 1.089-.805 1.9-2.178 2.433-4.118-1.366.238-2.514.218-3.444-.06-.946-.364-1.653-1.12-2.123-2.27zm9.376-10.34c-2.82 1.459-4.728 3.594-5.722 6.405a2.3 2.3 0 00-.073 1.069c.061.341.336.645.824.912.604.423 1.325.517 2.163.284.924-.249 1.496-.744 1.716-1.486.39-.772.68-1.614.868-2.526.275-.927.471-1.797.59-2.61.14-.2.138-.463-.009-.79-.146-.326-.265-.745-.357-1.257zm31.953 1.439c.744.222 1.357.204 1.839-.056l1.4-1.035c1.61-1.335 3.184-2.62 4.724-3.856 1.525-1.32 3.1-2.606 4.725-3.856a10.272 10.272 0 011.994-1.403c.793-.49 1.559-.886 2.297-1.19 2.54-1.058 4.26-.301 5.16 2.27.616 1.475.949 3.089.998 4.84.18 1.992.7 3.177 1.56 3.555.945.364 2.226.14 3.842-.668 1.15-.464 2.354-1.113 3.614-1.948a90.833 90.833 0 013.439-2.181c.964-.52 1.667-.774 2.109-.763.512-.089.884.023 1.116.334.333.382.424.894.275 1.536-.079.541-.593 1.115-1.542 1.72a38.776 38.776 0 01-4.56 3.3c-1.5.964-3.174 1.695-5.022 2.192-4.434 1.298-7.148-.34-8.143-4.918l-.252-1.408a7.341 7.341 0 00-.123-1.43c-.321-1.791-.635-3.056-.943-3.794-.223-.753-1.081-.384-2.575 1.107-1.54 1.236-3.213 2.714-5.018 4.435-1.72 1.706-3.35 3.177-4.889 4.413-.973.96-2.162 1.695-3.568 2.203-2.424 1.213-4.35.537-5.778-2.03a55.146 55.146 0 01-.961-1.68c-.177-.497-.373-.859-.59-1.085-.131-.241-.352-.247-.663-.017-.326.145-.828.54-1.505 1.185-1.479 1.577-2.904 3.452-4.276 5.626-1.372 2.174-2.79 4.092-4.254 5.754-.366.415-.689.823-.97 1.224a13.51 13.51 0 01-1.015.968c-.723.39-1.37.458-1.944.206-.588-.338-.874-.948-.856-1.83-.02-.613.156-1.347.53-2.204a122.708 122.708 0 011.917-6.27c.603-2.04 1.285-4.138 2.044-6.294l.119-.812c.109-.371.234-.657.375-.857.225-.215.494-.438.805-.668.311-.23.61-.282.896-.156.628.067 1.019.527 1.171 1.38l-.283 1.369a9.197 9.197 0 01-.178 1.218c-.11.371-.282.885-.517 1.542a36.7 36.7 0 01-.553 2.075 13.413 13.413 0 00-.554 2.076c-.149.641-.193 1.133-.132 1.474.296-.315.654-.773 1.075-1.374l1.262-1.803 1.368-1.953c.405-.686.798-1.195 1.18-1.525a8.102 8.102 0 011.353-1.29l1.4-1.036c2.69-1.699 4.821-1.102 6.395 1.791.131.241.227.532.289.874l.393.723zm52.402-8.055a40.427 40.427 0 012.877-.896l2.727-1.001c.652-.29 1.483-.566 2.493-.83a20.59 20.59 0 002.621-.851l.896-.156c.256-.045.613-.019 1.07.078.287.126.546.345.778.656.302.212.441.495.417.852.03.17-.103.413-.398.728-.296.316-.529.488-.7.518-.824.319-1.604.63-2.342.935a97.26 97.26 0 01-2.26.657 98.166 98.166 0 01-4.707 1.742c-1.506.437-2.997.96-4.473 1.569-.909.334-1.601.894-2.077 1.68a510.356 510.356 0 01-3.727 5.003c-.912 1.302-2.133 2.35-3.664 3.144-1.134.549-2.229.827-3.284.835-1.071-.078-1.946-.542-2.626-1.391-.68-.85-.994-2.114-.943-3.795.037-1.765.602-4.019 1.697-6.76a25.229 25.229 0 013.018-5.275 79.155 79.155 0 014.112-5.07 11.291 11.291 0 011.948-1.657c.693-.56 1.543-.972 2.553-1.236 1.421-.423 2.577-.36 3.467.19.875.463 1.4 1.427 1.574 2.892.122.683.124 1.43.005 2.242-.134.728-.218 1.49-.252 2.287-.094.457-.231.92-.411 1.391-.11.371-.239.878-.389 1.52zm-12.181 2.778c-1.131 2.044-1.582 3.706-1.353 4.985.213 1.195.742 1.938 1.587 2.231.915.193 1.882-.063 2.9-.768 1.089-.805 1.9-2.177 2.433-4.117-1.366.237-2.514.217-3.444-.061-.946-.364-1.653-1.12-2.123-2.27zm9.376-10.339c-2.82 1.458-4.728 3.593-5.721 6.405-.11.37-.135.727-.074 1.068.062.341.336.645.824.912.604.423 1.325.518 2.164.284.924-.249 1.495-.744 1.715-1.486.39-.771.68-1.613.869-2.526.274-.927.471-1.797.59-2.61.14-.2.137-.463-.01-.79-.146-.326-.265-.745-.357-1.257zm36.839 5.867c-1.04.093-1.897-.022-2.571-.345a5.898 5.898 0 01-1.834-1.396 16.948 16.948 0 01-1.286-2.02l-.924-2.214c-.726-1.106-1.559-1.577-2.498-1.413-.939.163-1.868.632-2.785 1.408-.848.675-1.623 1.513-2.324 2.515-.701 1.001-1.27 1.76-1.706 2.275-2.546 2.994-4.355 6.168-5.429 9.521-.134.727-.419 1.348-.855 1.864-.521.53-1.023.925-1.505 1.185-.497.175-.939.163-1.326-.033-.473-.182-.778-.657-.915-1.424-.076-.427-.052-.783.073-1.069.125-.285.242-.613.352-.984a437.389 437.389 0 003.183-9.526 442.987 442.987 0 013.182-9.526 8.908 8.908 0 011.253-2.593c.141-.2.331-.365.572-.495.326-.145.59-.147.792-.006.658.238.956.67.892 1.296.107.598.065 1.353-.124 2.265a61.347 61.347 0 00-1.07 3.617 42.06 42.06 0 00-.79 3.7c.591-.63.957-1.046 1.097-1.247a68.453 68.453 0 001.962-2.32 21.332 21.332 0 011.985-2.192c.872-1.032 1.934-1.744 3.184-2.137 2.455-1.043 4.287-.394 5.498 1.947.293.653.536 1.27.728 1.852.192.583.427 1.158.705 1.725.338.909.751 1.497 1.239 1.764.473.182 1.214.14 2.224-.123l1.28-.222a8.733 8.733 0 011.386-.373c1.18-.293 2.022-.264 2.525.089.504.352.638.856.403 1.513-.25.571-.935 1.174-2.054 1.808-1.033.62-2.54 1.058-4.519 1.314zm23.363-5.117a122.418 122.418 0 01-5.237 3.945 28.314 28.314 0 01-5.63 3.222l-2.004.612a8.563 8.563 0 01-2.095.1c-1.226.038-2.179-.368-2.859-1.218a4.404 4.404 0 01-1.19-2.96 10.16 10.16 0 01-.132-2.22 4.32 4.32 0 01.402-2.18c.664-1.7 1.213-3.555 1.646-5.565.518-2.025 1.203-3.86 2.053-5.503.336-.586.802-.931 1.4-1.035a1.753 1.753 0 011.628.245c.574.252.972.754 1.194 1.507.208.668.046 1.488-.484 2.46a162.8 162.8 0 01-1.852 4.412 87.143 87.143 0 00-1.83 4.54c-.533 1.94-.681 3.33-.443 4.168.308.738.819 1.133 1.533 1.185.799.037 1.723-.212 2.772-.746a18.674 18.674 0 003.078-1.986 59.297 59.297 0 003.01-2.371c.902-.86 1.521-1.584 1.857-2.17.686-1.087 1.37-1.69 2.053-1.809.668-.204 1.168-.115 1.501.267.402.282.622.772.659 1.47.021.611-.322 1.155-1.03 1.63zm-7.399-23.652c.683-.12 1.234.005 1.652.372.503.353.722.842.658 1.47-.048.711-.388 1.518-1.019 2.42a12.767 12.767 0 01-2.091 2.342c-1.073.89-1.881 1.295-2.424 1.213-.457-.096-.66-.984-.609-2.665-.012-1.053.24-2.108.755-3.166.601-1.072 1.627-1.734 3.078-1.986z" fill="#7BD"/></svg>